<svg xmlns="http://www.w3.org/2000/svg" width="19.1" height="24" viewBox="0 0 19.1 24"><defs><style>.a{fill:none;}.b{fill:#707070;}</style></defs><path class="a" d="M0,0H19.1V24H0Z"/><path class="b" d="M11.117,13.5V8c0-2.209-1.275-4-2.847-4S5.423,5.791,5.423,8v5.5c0,3.59,2.071,6.5,4.626,6.5s4.626-2.91,4.626-6.5V4H16.1v9.5c0,4.694-2.709,8.5-6.05,8.5S4,18.194,4,13.5V8C4,4.686,5.912,2,8.27,2s4.27,2.686,4.27,6v5.5c0,1.933-1.115,3.5-2.491,3.5s-2.491-1.567-2.491-3.5V8H8.982v5.5c0,.828.478,1.5,1.068,1.5s1.068-.672,1.068-1.5Z"/></svg>