<svg xmlns="http://www.w3.org/2000/svg" width="212.761" height="223.227" viewBox="0 0 212.761 223.227"><defs><style>.a{fill:none;stroke:#00adb5;stroke-width:2px;}</style></defs><g transform="translate(1.005 1)"><path class="a" d="M111.672,130.922c-30.783,0-55.724-29.9-55.724-66.755S80.889,0,111.672,0s55.749,27.316,55.749,64.167S142.459,130.922,111.672,130.922Zm-86.68,90.243s-11.82.78-17.026-6.394c-2.813-3.875-.853-11.729,1.07-16.111l4.711-10.737S26.776,158.782,41.609,141.9c9.111-10.355,19.947-8,26.956-4.629,4.317,2.072,9.2,8.109,12.765,11.309,4.915,4.409,13.593,9.419,27.779,9.7h8.7c14.178-.282,22.855-5.292,27.767-9.7,3.563-3.2,8.309-9.423,12.587-11.564,6.433-3.22,16.223-5.2,25.1,4.885,14.837,16.887,26.587,46.556,26.587,46.556l4.828,10.529c2,4.352,4.044,12.166,1.309,16.094-4.88,7.022-15.838,6.09-15.838,6.09Z" transform="translate(-6.559)"/></g></svg>