<svg xmlns="http://www.w3.org/2000/svg" width="36.4" height="36.4" viewBox="0 0 36.4 36.4"><defs><style>.a{fill:none;}.b{fill:#fff;}</style></defs><path class="a" d="M0,0H36.4V36.4H0Z"/><path class="b" d="M2,32.85a12.133,12.133,0,0,1,24.267,0H23.234a9.1,9.1,0,0,0-18.2,0ZM14.133,19.2a9.1,9.1,0,1,1,9.1-9.1A9.1,9.1,0,0,1,14.133,19.2Zm0-3.033A6.067,6.067,0,1,0,8.067,10.1,6.065,6.065,0,0,0,14.133,16.167ZM26.7,21.783A12.137,12.137,0,0,1,33.85,32.85H30.817a9.1,9.1,0,0,0-5.366-8.3L26.7,21.783ZM25.654,4.66a8.344,8.344,0,0,1-2.421,16.024V17.63A5.308,5.308,0,0,0,24.812,7.607Z" transform="translate(1.033 0.517)"/></svg>