<svg xmlns="http://www.w3.org/2000/svg" width="36.4" height="36.4" viewBox="0 0 36.4 36.4"><defs><style>.a{fill:none;}.b{fill:#fff;}</style></defs><path class="a" d="M0,0H36.4V36.4H0Z"/><path class="b" d="M7.55,11.617V10.1a9.1,9.1,0,0,1,18.2,0v1.517h3.033A1.517,1.517,0,0,1,30.3,13.133v18.2a1.517,1.517,0,0,1-1.517,1.517H4.517A1.517,1.517,0,0,1,3,31.334v-18.2a1.517,1.517,0,0,1,1.517-1.517ZM27.267,14.65H6.033V29.817H27.267ZM15.133,23.344a3.033,3.033,0,1,1,3.033,0v3.44H15.133Zm-4.55-11.727H22.717V10.1a6.067,6.067,0,1,0-12.133,0Z" transform="translate(1.55 0.517)"/></svg>