<svg xmlns="http://www.w3.org/2000/svg" width="19.8" height="24" viewBox="0 0 19.8 24"><defs><style>.a{fill:none;}.b{fill:#ef4141;}</style></defs><path class="a" d="M19.8,0H0V24H19.8Z"/><path class="b" d="M6.351,17.839A6.233,6.233,0,0,0,9.1,18.945V23h1.6V18.945c3.351-.468,6-3.766,6.372-7.945H15.458a7.169,7.169,0,0,1-2.88,5.154,4.64,4.64,0,0,1-5.035.2L8.786,14.8A3.389,3.389,0,0,0,12.31,14a5.5,5.5,0,0,0,1.6-4V8.414l4.5-5.606L17.272,1.393,1.393,21.193l1.135,1.414,3.823-4.768ZM3.985,15.16l1.157-1.442A8.084,8.084,0,0,1,4.343,11H2.726a10.373,10.373,0,0,0,1.259,4.16Zm2.334-2.909,7.042-8.78C12.446,1.522,10.6.58,8.849,1.172A4.952,4.952,0,0,0,5.89,6v4a6.005,6.005,0,0,0,.428,2.251Z" transform="translate(0)"/></svg>