<svg xmlns="http://www.w3.org/2000/svg" width="30" height="30" viewBox="0 0 30 30"><defs><style>.a,.b{fill:#ef4141;}.a{opacity:0;}</style></defs><g transform="translate(-0.367 -0.447)"><rect class="a" width="30" height="30" transform="translate(0.367 0.447)"/><path class="b" d="M20.87,19.071l-2.553-2.553L9.906,8.107,7.354,5.554,5.184,3.371A1.282,1.282,0,1,0,3.371,5.184l.689.676L6.307,8.107,18.228,20.028l1.864,1.864,3.7,3.714a1.282,1.282,0,1,0,1.812-1.812Z" transform="translate(0.828 0.828)"/><path class="b" d="M17.317,20.1H5.829a1.276,1.276,0,0,1-1.276-1.276V8.608a1.276,1.276,0,0,1,.511-1L3.276,5.8A3.829,3.829,0,0,0,2,8.608V18.819a3.829,3.829,0,0,0,3.829,3.829H17.317A3.753,3.753,0,0,0,19.435,22L17.5,20.1a.893.893,0,0,1-.179,0Z" transform="translate(0.553 1.603)"/><path class="b" d="M24.64,7.744a2.17,2.17,0,0,0-2.361.383L19.534,10.68V8.829A3.829,3.829,0,0,0,15.705,5H7.83l2.553,2.553h5.323a1.276,1.276,0,0,1,1.276,1.276v5.323l6.025,6.025a2.208,2.208,0,0,0,.766.14,2.144,2.144,0,0,0,.881-.191,2.042,2.042,0,0,0,1.276-1.889v-8.6A2.042,2.042,0,0,0,24.64,7.744Zm-1.276,9.509-3.587-3.319,3.587-3.319Z" transform="translate(2.164 1.382)"/></g></svg>