<svg xmlns="http://www.w3.org/2000/svg" width="18.866" height="18.866" viewBox="0 0 18.866 18.866"><defs><style>.a{opacity:0.77;}.b{fill:none;}.c{fill:#707070;}</style></defs><g class="a"><path class="b" d="M0,0H18.866V18.866H0Z"/><path class="c" d="M14.419,18.868H9.27A3.177,3.177,0,0,1,7,17.9L1.26,11.919l1.627-1.439a1.574,1.574,0,0,1,1.777-.212l1.894,1.006V3.768A1.966,1.966,0,0,1,8.523,1.8a2.309,2.309,0,0,1,.4.039A1.961,1.961,0,0,1,12.5.867,1.932,1.932,0,0,1,13.24.725a1.966,1.966,0,0,1,1.965,1.965v.22a2.149,2.149,0,0,1,.393-.039,1.966,1.966,0,0,1,1.965,1.965V15.724A3.144,3.144,0,0,1,14.419,18.868Zm-10.9-6.855,4.607,4.8a1.59,1.59,0,0,0,1.132.487h5.157a1.577,1.577,0,0,0,1.572-1.572V4.837a.393.393,0,1,0-.786,0v4.6H13.633V2.691a.393.393,0,1,0-.786,0V9.435H11.275V1.975a.393.393,0,1,0-.786,0v7.46H8.917V3.768a.389.389,0,0,0-.393-.393.394.394,0,0,0-.393.393V13.885L3.925,11.66l-.4.354Z" transform="translate(-0.27 -0.002)"/></g></svg>