<svg xmlns="http://www.w3.org/2000/svg" width="29" height="29" viewBox="0 0 29 29"><defs><style>.a{fill:none;}.b{fill:#fff;}</style></defs><path class="a" d="M0,0H29V29H0Z"/><path class="b" d="M3.544,20.125a12.105,12.105,0,0,1-1.182-2.811,3.625,3.625,0,0,0,0-6.461A12.071,12.071,0,0,1,5.386,5.613a3.625,3.625,0,0,0,5.6-3.231,12.071,12.071,0,0,1,6.05,0,3.625,3.625,0,0,0,5.6,3.229,12.177,12.177,0,0,1,3.024,5.239,3.625,3.625,0,0,0,0,6.461,12.071,12.071,0,0,1-3.022,5.241,3.625,3.625,0,0,0-5.6,3.231,12.071,12.071,0,0,1-6.05,0,3.625,3.625,0,0,0-5.6-3.229,12.105,12.105,0,0,1-1.843-2.429Zm6.839.237A6.033,6.033,0,0,1,13.1,23.709a9.649,9.649,0,0,0,1.811,0,6.046,6.046,0,0,1,6.979-4.03,9.586,9.586,0,0,0,.9-1.568,6.045,6.045,0,0,1,0-8.057,9.819,9.819,0,0,0-.906-1.568,6.041,6.041,0,0,1-6.976-4.029,9.649,9.649,0,0,0-1.811,0,6.046,6.046,0,0,1-6.979,4.03,9.655,9.655,0,0,0-.9,1.568,6.045,6.045,0,0,1,0,8.057,9.819,9.819,0,0,0,.906,1.568A6.033,6.033,0,0,1,10.383,20.362Zm3.625-2.653a3.625,3.625,0,1,1,3.625-3.625A3.625,3.625,0,0,1,14.008,17.709Zm0-2.417A1.208,1.208,0,1,0,12.8,14.084,1.208,1.208,0,0,0,14.008,15.292Z" transform="translate(0.492 0.416)"/></svg>