<svg xmlns="http://www.w3.org/2000/svg" width="33.4" height="33.4" viewBox="0 0 33.4 33.4"><defs><style>.a{fill:none;}.b{fill:#fff;}</style></defs><path class="a" d="M0,0H33.4V33.4H0Z"/><path class="b" d="M6.241,3.351a4.871,4.871,0,0,1,6.224,6.226L27.557,24.67,24.6,27.621,9.511,12.53A4.871,4.871,0,0,1,3.288,6.3L6.4,9.417A2.087,2.087,0,1,0,9.352,6.465L6.24,3.349ZM20.668,5.973,25.1,3.512,27.065,5.48,24.6,9.908l-2.46.493-2.95,2.952-1.969-1.968,2.952-2.952.493-2.46ZM10.828,16.8,13.78,19.75,6.891,26.639a2.088,2.088,0,0,1-3.085-2.8l.135-.149L10.829,16.8Z" transform="translate(1.177 1.201)"/></svg>