<svg xmlns="http://www.w3.org/2000/svg" width="26.333" height="26.333" viewBox="0 0 26.333 26.333"><defs><style>.a{fill:none;}.b{fill:#707070;}</style></defs><path class="a" d="M0,0H26.333V26.333H0Z"/><path class="b" d="M14.972,15.54v2.293a6.583,6.583,0,0,0-8.778,6.208H4a8.778,8.778,0,0,1,10.972-8.5Zm-2.194-1.374a6.583,6.583,0,1,1,6.583-6.583A6.582,6.582,0,0,1,12.778,14.167Zm0-2.194A4.389,4.389,0,1,0,8.389,7.583,4.388,4.388,0,0,0,12.778,11.972Zm6.583,6.583V15.264h2.194v3.292h3.292V20.75H21.556v3.292H19.361V20.75H16.07V18.556Z" transform="translate(0.389 0.097)"/></svg>